<svg xmlns="http://www.w3.org/2000/svg" xmlns:xlink="http://www.w3.org/1999/xlink" width="33" height="26.916" viewBox="0 0 33 26.916"><defs><linearGradient id="a" x1="0.5" x2="0.5" y2="1" gradientUnits="objectBoundingBox"><stop offset="0" stop-color="#fff"/><stop offset="1" stop-color="#f1eefe"/></linearGradient></defs><path d="M34.5,4.5a16.35,16.35,0,0,1-4.71,2.3A6.72,6.72,0,0,0,18,11.295v1.5A15.99,15.99,0,0,1,4.5,6s-6,13.5,7.5,19.5a17.46,17.46,0,0,1-10.5,3c13.5,7.5,30,0,30-17.25A6.75,6.75,0,0,0,31.38,10,11.58,11.58,0,0,0,34.5,4.5Z" transform="translate(-1.5 -4.485)" fill="url(#a)"/></svg>